HIERARCHY
ROOT hip
{
	OFFSET 0.000000 0.000000 0.000000
	CHANNELS 6 Xposition Yposition Zposition Xrotation Zrotation Yrotation 
	JOINT abdomen
	{
		OFFSET 0.000000 3.422050 0.000000
		CHANNELS 3 Xrotation Zrotation Yrotation 
		JOINT chest
		{
			OFFSET 0.000000 8.486693 -0.684411
			CHANNELS 3 Xrotation Zrotation Yrotation 
			JOINT neck
			{
				OFFSET 0.000000 10.266162 -0.273764
				CHANNELS 3 Xrotation Zrotation Yrotation 
				JOINT head
				{
					OFFSET 0.000000 3.148285 0.000000
					CHANNELS 3 Xrotation Zrotation Yrotation 
					End Site
					{
						OFFSET 0.000000 3.148289 0.000000
					}
				}
			}
			JOINT lCollar
			{
				OFFSET 3.422053 6.707223 -0.821293
				CHANNELS 3 Yrotation Zrotation Xrotation 
				JOINT lShldr
				{
					OFFSET 3.285171 0.000000 0.000000
					CHANNELS 3 Zrotation Yrotation Xrotation 
					JOINT lForeArm
					{
						OFFSET 10.129278 0.000000 0.000000
						CHANNELS 3 Yrotation Zrotation Xrotation 
						JOINT lHand
						{
							OFFSET 8.486692 0.000000 0.000000
							CHANNELS 3 Zrotation Yrotation Xrotation 
							End Site
							{
								OFFSET 4.106464 0.000000 0.000000
							}
						}
					}
				}
			}
			JOINT rCollar
			{
				OFFSET -3.558935 6.707223 -0.821293
				CHANNELS 3 Yrotation Zrotation Xrotation 
				JOINT rShldr
				{
					OFFSET -3.148289 0.000000 0.000000
					CHANNELS 3 Zrotation Yrotation Xrotation 
					JOINT rForeArm
					{
						OFFSET -10.266159 0.000000 0.000000
						CHANNELS 3 Yrotation Zrotation Xrotation 
						JOINT rHand
						{
							OFFSET -8.349810 0.000000 0.000000
							CHANNELS 3 Zrotation Yrotation Xrotation 
							End Site
							{
								OFFSET -4.106464 0.000000 0.000000
							}
						}
					}
				}
			}
		}
	}
	JOINT lThigh
	{
		OFFSET 5.338403 -1.642589 1.368821
		CHANNELS 3 Xrotation Zrotation Yrotation 
		JOINT lShin
		{
			OFFSET -2.053232 -20.121670 0.000000
			CHANNELS 3 Xrotation Zrotation Yrotation 
			JOINT lFoot
			{
				OFFSET 0.000000 -19.300380 -1.231939
				CHANNELS 3 Xrotation Yrotation Zrotation 
				End Site
				{
					OFFSET 0.000000 -2.463878 4.653993
				}
			}
		}
	}
	JOINT rThigh
	{
		OFFSET -5.338403 -1.642589 1.368821
		CHANNELS 3 Xrotation Zrotation Yrotation 
		JOINT rShin
		{
			OFFSET 2.053232 -20.121670 0.000000
			CHANNELS 3 Xrotation Zrotation Yrotation 
			JOINT rFoot
			{
				OFFSET 0.000000 -19.300380 -1.231939
				CHANNELS 3 Xrotation Yrotation Zrotation 
				End Site
				{
					OFFSET 0.000000 -2.463878 4.653993
				}
			}
		}
	}
}
MOTION
Frames: 11
Frame Time: 0.033264
0.000000 40.593857 27.817924 104.995956 0.000001 -0.000001 -18.278152 -1.036225 -0.987303 -2.331551 -1.261028 -2.100660 0.015075 0.000000 0.000000 0.019242 0.000000 0.000000 -44.387676 1.453960 13.407014 -3.881228 -23.353943 -28.848984 -26.983440 14.143102 4.099685 39.346649 -7.039175 -7.022035 43.899757 -1.494487 13.285937 3.996702 24.797823 -28.658535 28.610447 -14.429963 4.448669 -39.235188 6.599540 -6.219077 -103.965828 7.048558 0.111532 1.450972 -5.687535 0.290344 40.649319 5.500478 2.094498 -103.298973 -6.723698 1.627644 -0.349224 4.803404 -0.439923 39.675602 -5.507193 -2.022550 
0.000000 40.593857 27.872292 104.995956 0.000001 -0.000001 -18.905645 -1.036190 -0.987280 -0.930002 -1.261033 -2.100659 0.014070 0.000000 0.000000 0.017959 0.000000 0.000000 -44.367661 1.925398 13.177814 -3.881228 -23.353943 -28.848984 -26.983440 14.143102 4.099685 39.587284 -6.961937 -7.178520 43.846371 -1.948065 13.056938 3.996702 24.797823 -28.658535 28.610447 -14.429963 4.448669 -39.487572 6.469995 -6.349326 -103.965836 7.048559 0.111532 1.450972 -5.687535 0.290344 40.539829 5.446617 2.171711 -103.298973 -6.723698 1.627644 -0.349224 4.803404 -0.439923 39.675602 -5.507193 -2.022550 
0.000000 40.593857 27.926661 104.995956 0.000001 -0.000001 -19.533064 -1.036154 -0.987258 0.470705 -1.261037 -2.100658 0.013065 0.000000 0.000000 0.016676 0.000000 0.000000 -44.345768 2.396713 12.948402 -3.881228 -23.353943 -28.848984 -26.983440 14.143102 4.099685 39.827675 -6.884053 -7.334649 43.791168 -2.401388 12.827468 3.996702 24.797823 -28.658535 28.610447 -14.429963 4.448669 -39.739601 6.339887 -6.478965 -103.965828 7.048558 0.111532 1.450972 -5.687534 0.290344 40.430420 5.392610 2.248814 -103.298973 -6.723698 1.627644 -0.349224 4.803403 -0.439923 39.675602 -5.507193 -2.022550 
0.000000 40.593857 27.981030 104.995956 0.000001 -0.000001 -20.160370 -1.036118 -0.987236 1.870159 -1.261042 -2.100658 0.012060 0.000000 0.000000 0.015394 0.000000 0.000000 -44.321980 2.867876 12.718752 -3.881228 -23.353943 -28.848984 -26.983440 14.143102 4.099685 40.067791 -6.805522 -7.490415 43.734142 -2.854437 12.597508 3.996702 24.797823 -28.658535 28.610447 -14.429963 4.448669 -39.991245 6.209217 -6.607987 -103.965828 7.048558 0.111532 1.450972 -5.687535 0.290344 40.321098 5.338457 2.325806 -103.298973 -6.723698 1.627644 -0.349224 4.803404 -0.439923 39.675602 -5.507193 -2.022550 
0.000000 40.593857 28.035397 104.995956 0.000001 -0.000001 -20.787521 -1.036081 -0.987214 3.267941 -1.261047 -2.100658 0.011055 0.000000 0.000000 0.014111 0.000000 0.000000 -44.296295 3.338860 12.488840 -3.881228 -23.353943 -28.848984 -26.983440 14.143102 4.099685 40.307640 -6.726348 -7.645815 43.675262 -3.307177 12.367031 3.996702 24.797823 -28.658535 28.610447 -14.429963 4.448669 -40.242531 6.077994 -6.736392 -103.965828 7.048558 0.111532 1.450972 -5.687535 0.290344 40.211864 5.284158 2.402686 -103.298973 -6.723698 1.627644 -0.349224 4.803404 -0.439923 39.675602 -5.507193 -2.022550 
0.000000 40.593857 28.089766 104.995956 0.000001 -0.000001 -21.414492 -1.036045 -0.987193 4.663637 -1.261051 -2.100657 0.010050 0.000000 0.000000 0.012828 0.000000 0.000000 -44.268703 3.809640 12.258649 -3.881228 -23.353943 -28.848984 -26.983440 14.143102 4.099685 40.547226 -6.646533 -7.800846 43.614555 -3.759588 12.136024 3.996702 24.797823 -28.658535 28.610447 -14.429963 4.448669 -40.493435 5.946222 -6.864179 -103.965836 7.048559 0.111532 1.450972 -5.687534 0.290344 40.102715 5.229716 2.479455 -103.298973 -6.723698 1.627644 -0.349224 4.803404 -0.439923 39.675602 -5.507193 -2.022550 
0.000000 40.593857 28.144135 104.995956 0.000001 -0.000001 -22.041235 -1.036008 -0.987172 6.056847 -1.261056 -2.100657 0.009045 0.000000 0.000000 0.011545 0.000000 0.000000 -44.239212 4.280189 12.028153 -3.881228 -23.353943 -28.848984 -26.983440 14.143102 4.099685 40.786522 -6.566081 -7.955502 43.552010 -4.211645 11.904466 3.996702 24.797823 -28.658535 28.610447 -14.429963 4.448669 -40.743969 5.813905 -6.991343 -103.965828 7.048558 0.111532 1.450972 -5.687535 0.290344 39.993649 5.175128 2.556111 -103.298973 -6.723698 1.627644 -0.349224 4.803404 -0.439923 39.675602 -5.507193 -2.022550 
0.000000 40.593857 28.198502 104.995956 0.000001 -0.000001 -22.667713 -1.035971 -0.987152 7.447161 -1.261061 -2.100658 0.008040 0.000000 0.000000 0.010262 0.000000 0.000000 -44.207802 4.750474 11.797333 -3.881228 -23.353943 -28.848984 -26.983440 14.143102 4.099685 41.025558 -6.484996 -8.109783 43.487595 -4.663319 11.672333 3.996702 24.797823 -28.658535 28.610447 -14.429963 4.448669 -40.994122 5.681050 -7.117883 -103.965828 7.048558 0.111532 1.450972 -5.687535 0.290344 39.884666 5.120396 2.632654 -103.298973 -6.723698 1.627644 -0.349224 4.803403 -0.439923 39.675602 -5.507193 -2.022550 
0.000000 40.593857 28.252871 104.995956 0.000001 -0.000001 -23.293890 -1.035934 -0.987132 8.834180 -1.261065 -2.100658 0.007035 0.000000 0.000000 0.008980 0.000000 0.000000 -44.174492 5.220477 11.566166 -3.881228 -23.353943 -28.848984 -26.983440 14.143102 4.099685 41.264301 -6.403282 -8.263682 43.421329 -5.114587 11.439608 3.996702 24.797823 -28.658535 28.610447 -14.429963 4.448669 -41.243877 5.547660 -7.243794 -103.965828 7.048558 0.111532 1.450972 -5.687534 0.290344 39.775764 5.065520 2.709085 -103.298973 -6.723698 1.627644 -0.349224 4.803404 -0.439923 39.675602 -5.507193 -2.022550 
0.000000 40.593857 28.307240 104.995956 0.000001 -0.000001 -23.919733 -1.035897 -0.987112 10.217510 -1.261070 -2.100658 0.006030 0.000000 0.000000 0.007697 0.000000 0.000000 -44.139263 5.690162 11.334631 -3.881228 -23.353943 -28.848984 -26.983440 14.143102 4.099685 41.502758 -6.320937 -8.417194 43.353191 -5.565419 11.206270 3.996703 24.797823 -28.658535 28.610447 -14.429963 4.448669 -41.493279 5.413745 -7.369080 -103.965836 7.048559 0.111532 1.450972 -5.687535 0.290344 39.666950 5.010501 2.785402 -103.298973 -6.723698 1.627644 -0.349224 4.803403 -0.439923 39.675602 -5.507193 -2.022550 
0.000000 40.593857 28.361607 104.995956 0.000001 -0.000001 -24.545200 -1.035859 -0.987093 11.596764 -1.261074 -2.100658 0.005025 0.000000 0.000000 0.006414 0.000000 0.000000 -44.102108 6.159506 11.102708 -3.881228 -23.353943 -28.848984 -26.983440 14.143102 4.099685 41.740925 -6.237970 -8.570316 43.283180 -6.015795 10.972299 3.996703 24.797823 -28.658535 28.610447 -14.429963 4.448669 -41.742287 5.279305 -7.493733 -103.965828 7.048558 0.111532 1.450972 -5.687535 0.290344 39.558228 4.955340 2.861605 -103.298973 -6.723698 1.627644 -0.349224 4.803404 -0.439923 39.675602 -5.507193 -2.022550 
